<?xml version="1.0" encoding="UTF-8" standalone="no"?>
<svg
   width="18"
   height="18"
   viewBox="0 0 18 18"
   fill="none"
   version="1.1"
   id="svg2"
   sodipodi:docname="plus_green.svg"
   inkscape:version="1.3.2 (091e20e, 2023-11-25)"
   xmlns:inkscape="http://www.inkscape.org/namespaces/inkscape"
   xmlns:sodipodi="http://sodipodi.sourceforge.net/DTD/sodipodi-0.dtd"
   xmlns="http://www.w3.org/2000/svg"
   xmlns:svg="http://www.w3.org/2000/svg">
  <defs
     id="defs2" />
  <sodipodi:namedview
     id="namedview2"
     pagecolor="#ffffff"
     bordercolor="#000000"
     borderopacity="0.25"
     inkscape:showpageshadow="2"
     inkscape:pageopacity="0.0"
     inkscape:pagecheckerboard="0"
     inkscape:deskcolor="#d1d1d1"
     inkscape:zoom="13.111111"
     inkscape:cx="9"
     inkscape:cy="9"
     inkscape:window-width="1344"
     inkscape:window-height="449"
     inkscape:window-x="1968"
     inkscape:window-y="455"
     inkscape:window-maximized="0"
     inkscape:current-layer="svg2" />
  <path
     fill-rule="evenodd"
     clip-rule="evenodd"
     d="M17.2812 8.53125H9.46875V0.71875C9.46875 0.459867 9.25888 0.25 9 0.25C8.74112 0.25 8.53125 0.459867 8.53125 0.71875V8.53125H0.71875C0.459867 8.53125 0.25 8.74112 0.25 9C0.25 9.25888 0.459867 9.46875 0.71875 9.46875H8.53125V17.2812C8.53125 17.5401 8.74112 17.75 9 17.75C9.25888 17.75 9.46875 17.5401 9.46875 17.2812V9.46875H17.2812C17.5401 9.46875 17.75 9.25888 17.75 9C17.75 8.74112 17.5401 8.53125 17.2812 8.53125Z"
     fill="#262626"
     id="path1"
     style="fill:#008000" />
  <mask
     id="mask0_4472_293"
     style="mask-type:alpha"
     maskUnits="userSpaceOnUse"
     x="0"
     y="0"
     width="18"
     height="18">
    <path
       fill-rule="evenodd"
       clip-rule="evenodd"
       d="M17.2812 8.53125H9.46875V0.71875C9.46875 0.459867 9.25888 0.25 9 0.25C8.74112 0.25 8.53125 0.459867 8.53125 0.71875V8.53125H0.71875C0.459867 8.53125 0.25 8.74112 0.25 9C0.25 9.25888 0.459867 9.46875 0.71875 9.46875H8.53125V17.2812C8.53125 17.5401 8.74112 17.75 9 17.75C9.25888 17.75 9.46875 17.5401 9.46875 17.2812V9.46875H17.2812C17.5401 9.46875 17.75 9.25888 17.75 9C17.75 8.74112 17.5401 8.53125 17.2812 8.53125Z"
       fill="white"
       id="path2" />
  </mask>
  <g
     mask="url(#mask0_4472_293)"
     id="g2" />
</svg>
