<svg width="18" height="18" viewBox="0 0 18 18" fill="none" xmlns="http://www.w3.org/2000/svg">
<path fill-rule="evenodd" clip-rule="evenodd" d="M17.2812 8.53125H9.46875V0.71875C9.46875 0.459867 9.25888 0.25 9 0.25C8.74112 0.25 8.53125 0.459867 8.53125 0.71875V8.53125H0.71875C0.459867 8.53125 0.25 8.74112 0.25 9C0.25 9.25888 0.459867 9.46875 0.71875 9.46875H8.53125V17.2812C8.53125 17.5401 8.74112 17.75 9 17.75C9.25888 17.75 9.46875 17.5401 9.46875 17.2812V9.46875H17.2812C17.5401 9.46875 17.75 9.25888 17.75 9C17.75 8.74112 17.5401 8.53125 17.2812 8.53125Z" fill="#262626"/>
<mask id="mask0_4472_293" style="mask-type:alpha" maskUnits="userSpaceOnUse" x="0" y="0" width="18" height="18">
<path fill-rule="evenodd" clip-rule="evenodd" d="M17.2812 8.53125H9.46875V0.71875C9.46875 0.459867 9.25888 0.25 9 0.25C8.74112 0.25 8.53125 0.459867 8.53125 0.71875V8.53125H0.71875C0.459867 8.53125 0.25 8.74112 0.25 9C0.25 9.25888 0.459867 9.46875 0.71875 9.46875H8.53125V17.2812C8.53125 17.5401 8.74112 17.75 9 17.75C9.25888 17.75 9.46875 17.5401 9.46875 17.2812V9.46875H17.2812C17.5401 9.46875 17.75 9.25888 17.75 9C17.75 8.74112 17.5401 8.53125 17.2812 8.53125Z" fill="white"/>
</mask>
<g mask="url(#mask0_4472_293)">
</g>
</svg>
